<svg width="100" height="67" viewBox="0 0 100 67" fill="none" xmlns="http://www.w3.org/2000/svg">
<ellipse cx="50" cy="33.5" rx="50" ry="33.5" fill="url(#paint0_linear_2030_309)"/>
<path d="M48.2322 61.7678C49.2085 62.7441 50.7915 62.7441 51.7678 61.7678L67.6777 45.8579C68.654 44.8816 68.654 43.2986 67.6777 42.3223C66.7014 41.346 65.1184 41.346 64.1421 42.3223L50 56.4645L35.8579 42.3223C34.8816 41.346 33.2986 41.346 32.3223 42.3223C31.346 43.2986 31.346 44.8816 32.3223 45.8579L48.2322 61.7678ZM47.5 34L47.5 60L52.5 60L52.5 34L47.5 34Z" fill="#F0F4F8"/>
<defs>
<linearGradient id="paint0_linear_2030_309" x1="50" y1="0" x2="50" y2="67" gradientUnits="userSpaceOnUse">
<stop offset="0.3" stop-color="#F0F4F8"/>
<stop offset="1" stop-color="#333333"/>
</linearGradient>
</defs>
</svg>
